<svg width="102" height="20" viewBox="0 0 102 20" fill="none" xmlns="http://www.w3.org/2000/svg">
<path d="M8.71591 4.09091C8.63068 3.37121 8.28504 2.8125 7.67898 2.41477C7.07292 2.01705 6.32955 1.81818 5.44886 1.81818C4.80492 1.81818 4.24148 1.92235 3.75852 2.13068C3.2803 2.33901 2.90625 2.62547 2.63636 2.99006C2.37121 3.35464 2.23864 3.76894 2.23864 4.23295C2.23864 4.62121 2.33097 4.95502 2.51562 5.23438C2.70502 5.509 2.9465 5.73864 3.24006 5.9233C3.53362 6.10322 3.84138 6.25237 4.16335 6.37074C4.48532 6.48437 4.78125 6.5767 5.05114 6.64773L6.52841 7.04545C6.9072 7.14489 7.3286 7.2822 7.79261 7.45739C8.26136 7.63258 8.70881 7.87169 9.13494 8.17472C9.56581 8.47301 9.92093 8.85653 10.2003 9.32528C10.4796 9.79403 10.6193 10.3693 10.6193 11.0511C10.6193 11.8371 10.4134 12.5473 10.0014 13.1818C9.59422 13.8163 8.99763 14.3205 8.21165 14.6946C7.4304 15.0687 6.48106 15.2557 5.36364 15.2557C4.32197 15.2557 3.41998 15.0876 2.65767 14.7514C1.90009 14.4152 1.3035 13.9465 0.867898 13.3452C0.437027 12.7438 0.193182 12.0455 0.136364 11.25H1.95455C2.00189 11.7992 2.18655 12.2538 2.50852 12.6136C2.83523 12.9687 3.24716 13.2339 3.74432 13.4091C4.24621 13.5795 4.78598 13.6648 5.36364 13.6648C6.03598 13.6648 6.63968 13.5559 7.17472 13.3381C7.70975 13.1155 8.13352 12.8078 8.44602 12.4148C8.75852 12.017 8.91477 11.553 8.91477 11.0227C8.91477 10.5398 8.77983 10.1468 8.50994 9.84375C8.24006 9.54072 7.88494 9.29451 7.4446 9.10511C7.00426 8.91572 6.52841 8.75 6.01705 8.60795L4.22727 8.09659C3.09091 7.76989 2.19129 7.3035 1.52841 6.69744C0.86553 6.09138 0.534091 5.2983 0.534091 4.31818C0.534091 3.50379 0.754261 2.79356 1.1946 2.1875C1.63968 1.5767 2.23627 1.10322 2.98438 0.767045C3.73722 0.426136 4.57765 0.255681 5.50568 0.255681C6.44318 0.255681 7.27652 0.423768 8.00568 0.759943C8.73485 1.09138 9.3125 1.54593 9.73864 2.12358C10.1695 2.70123 10.3968 3.35701 10.4205 4.09091H8.71591ZM14.9641 0.454545V15H13.288V0.454545H14.9641ZM22.608 15.2273C21.5568 15.2273 20.6501 14.9953 19.8878 14.5312C19.1302 14.0625 18.5455 13.4091 18.1335 12.571C17.7263 11.7282 17.5227 10.7481 17.5227 9.63068C17.5227 8.51326 17.7263 7.52841 18.1335 6.67614C18.5455 5.81913 19.1184 5.15152 19.8523 4.6733C20.5909 4.19034 21.4527 3.94886 22.4375 3.94886C23.0057 3.94886 23.5668 4.04356 24.1207 4.23295C24.6747 4.42235 25.179 4.73011 25.6335 5.15625C26.0881 5.57765 26.4503 6.13636 26.7202 6.83239C26.9901 7.52841 27.125 8.38542 27.125 9.40341V10.1136H18.7159V8.66477H25.4205C25.4205 8.04924 25.2973 7.5 25.0511 7.01705C24.8097 6.53409 24.464 6.15294 24.0142 5.87358C23.5691 5.59422 23.0436 5.45455 22.4375 5.45455C21.7699 5.45455 21.1922 5.62026 20.7045 5.9517C20.2216 6.27841 19.8499 6.70455 19.5895 7.23011C19.3291 7.75568 19.1989 8.31913 19.1989 8.92045V9.88636C19.1989 10.7102 19.3409 11.4086 19.625 11.9815C19.9138 12.5497 20.3139 12.983 20.8253 13.2812C21.3366 13.5748 21.9309 13.7216 22.608 13.7216C23.0483 13.7216 23.446 13.66 23.8011 13.5369C24.161 13.4091 24.4711 13.2197 24.7315 12.9688C24.992 12.7131 25.1932 12.3958 25.3352 12.017L26.9545 12.4716C26.7841 13.0208 26.4976 13.5038 26.0952 13.9205C25.6927 14.3324 25.1955 14.6544 24.6037 14.8864C24.0118 15.1136 23.3466 15.2273 22.608 15.2273ZM34.2486 15.2273C33.1974 15.2273 32.2907 14.9953 31.5284 14.5312C30.7708 14.0625 30.1861 13.4091 29.7741 12.571C29.367 11.7282 29.1634 10.7481 29.1634 9.63068C29.1634 8.51326 29.367 7.52841 29.7741 6.67614C30.1861 5.81913 30.759 5.15152 31.4929 4.6733C32.2315 4.19034 33.0933 3.94886 34.0781 3.94886C34.6463 3.94886 35.2074 4.04356 35.7614 4.23295C36.3153 4.42235 36.8196 4.73011 37.2741 5.15625C37.7287 5.57765 38.0909 6.13636 38.3608 6.83239C38.6307 7.52841 38.7656 8.38542 38.7656 9.40341V10.1136H30.3565V8.66477H37.0611C37.0611 8.04924 36.938 7.5 36.6918 7.01705C36.4503 6.53409 36.1046 6.15294 35.6548 5.87358C35.2098 5.59422 34.6842 5.45455 34.0781 5.45455C33.4105 5.45455 32.8329 5.62026 32.3452 5.9517C31.8622 6.27841 31.4905 6.70455 31.2301 7.23011C30.9697 7.75568 30.8395 8.31913 30.8395 8.92045V9.88636C30.8395 10.7102 30.9815 11.4086 31.2656 11.9815C31.5545 12.5497 31.9545 12.983 32.4659 13.2812C32.9773 13.5748 33.5715 13.7216 34.2486 13.7216C34.6889 13.7216 35.0866 13.66 35.4418 13.5369C35.8016 13.4091 36.1117 13.2197 36.3722 12.9688C36.6326 12.7131 36.8338 12.3958 36.9759 12.017L38.5952 12.4716C38.4247 13.0208 38.1383 13.5038 37.7358 13.9205C37.3333 14.3324 36.8362 14.6544 36.2443 14.8864C35.6525 15.1136 34.9872 15.2273 34.2486 15.2273ZM41.3153 19.0909V4.09091H42.9347V5.82386H43.1335C43.2566 5.63447 43.4271 5.39299 43.6449 5.09943C43.8674 4.80114 44.1847 4.53598 44.5966 4.30398C45.0133 4.06723 45.5767 3.94886 46.2869 3.94886C47.2055 3.94886 48.0152 4.1785 48.7159 4.63778C49.4167 5.09706 49.9635 5.74811 50.3565 6.59091C50.7495 7.43371 50.946 8.42803 50.946 9.57386C50.946 10.7292 50.7495 11.7306 50.3565 12.5781C49.9635 13.4209 49.419 14.0743 48.723 14.5384C48.027 14.9976 47.2244 15.2273 46.3153 15.2273C45.6146 15.2273 45.0535 15.1113 44.6321 14.8793C44.2107 14.6425 43.8864 14.375 43.6591 14.0767C43.4318 13.7737 43.2566 13.5227 43.1335 13.3239H42.9915V19.0909H41.3153ZM42.9631 9.54545C42.9631 10.3693 43.0838 11.0961 43.3253 11.7259C43.5668 12.3509 43.9195 12.8409 44.3835 13.196C44.8475 13.5464 45.4157 13.7216 46.0881 13.7216C46.7888 13.7216 47.3736 13.5369 47.8423 13.1676C48.3158 12.7936 48.6709 12.2917 48.9077 11.6619C49.1491 11.0275 49.2699 10.322 49.2699 9.54545C49.2699 8.77841 49.1515 8.08712 48.9148 7.47159C48.6828 6.85133 48.33 6.36127 47.8565 6.00142C47.3878 5.63684 46.7983 5.45455 46.0881 5.45455C45.4063 5.45455 44.8333 5.62737 44.3693 5.97301C43.9053 6.31392 43.5549 6.79214 43.3182 7.40767C43.0814 8.01847 42.9631 8.73106 42.9631 9.54545ZM53.7301 15V0.454545H55.4915V6.93182H63.2472V0.454545H65.0085V15H63.2472V8.49432H55.4915V15H53.7301ZM68.3075 15V4.09091H69.9837V15H68.3075ZM69.1598 2.27273C68.8331 2.27273 68.5514 2.16146 68.3146 1.93892C68.0826 1.71638 67.9666 1.44886 67.9666 1.13636C67.9666 0.823864 68.0826 0.556345 68.3146 0.333806C68.5514 0.111269 68.8331 0 69.1598 0C69.4865 0 69.7659 0.111269 69.9979 0.333806C70.2346 0.556345 70.353 0.823864 70.353 1.13636C70.353 1.44886 70.2346 1.71638 69.9979 1.93892C69.7659 2.16146 69.4865 2.27273 69.1598 2.27273ZM77.457 19.3182C76.6474 19.3182 75.9513 19.214 75.369 19.0057C74.7866 18.8021 74.3013 18.5322 73.913 18.196C73.5295 17.8646 73.2241 17.5095 72.9968 17.1307L74.332 16.1932C74.4835 16.392 74.6753 16.6193 74.9073 16.875C75.1393 17.1354 75.4566 17.3603 75.859 17.5497C76.2662 17.7438 76.7989 17.8409 77.457 17.8409C78.3377 17.8409 79.0645 17.6278 79.6374 17.2017C80.2103 16.7756 80.4968 16.108 80.4968 15.1989V12.983H80.3548C80.2317 13.1818 80.0565 13.428 79.8292 13.7216C79.6067 14.0104 79.2847 14.2685 78.8633 14.4957C78.4466 14.7183 77.8832 14.8295 77.1729 14.8295C76.2923 14.8295 75.5015 14.6212 74.8008 14.2045C74.1048 13.7879 73.5531 13.1818 73.146 12.3864C72.7435 11.5909 72.5423 10.625 72.5423 9.48864C72.5423 8.37121 72.7388 7.3982 73.1317 6.5696C73.5247 5.73627 74.0716 5.09233 74.7724 4.63778C75.4731 4.1785 76.2828 3.94886 77.2013 3.94886C77.9116 3.94886 78.475 4.06723 78.8917 4.30398C79.3131 4.53598 79.6351 4.80114 79.8576 5.09943C80.0849 5.39299 80.2601 5.63447 80.3832 5.82386H80.5536V4.09091H82.1729V15.3125C82.1729 16.25 81.9599 17.0123 81.5337 17.5994C81.1123 18.1913 80.5442 18.6245 79.8292 18.8991C79.119 19.1785 78.3282 19.3182 77.457 19.3182ZM77.4002 13.3239C78.0726 13.3239 78.6407 13.17 79.1048 12.8622C79.5688 12.5545 79.9215 12.1117 80.163 11.5341C80.4045 10.9564 80.5252 10.2652 80.5252 9.46023C80.5252 8.67424 80.4068 7.98059 80.1701 7.37926C79.9334 6.77794 79.583 6.30682 79.119 5.96591C78.6549 5.625 78.082 5.45455 77.4002 5.45455C76.69 5.45455 76.0981 5.63447 75.6246 5.99432C75.1559 6.35417 74.8031 6.83712 74.5664 7.44318C74.3344 8.04924 74.2184 8.72159 74.2184 9.46023C74.2184 10.2178 74.3368 10.8878 74.5735 11.4702C74.815 12.0478 75.1701 12.5024 75.6388 12.8338C76.1123 13.1605 76.6995 13.3239 77.4002 13.3239ZM86.9173 8.4375V15H85.2411V0.454545H86.9173V5.79545H87.0593C87.315 5.23201 87.6985 4.78456 88.2099 4.45312C88.726 4.11695 89.4125 3.94886 90.2695 3.94886C91.0129 3.94886 91.6639 4.09801 92.2227 4.39631C92.7814 4.68987 93.2146 5.14205 93.5224 5.75284C93.8349 6.3589 93.9911 7.13068 93.9911 8.06818V15H92.315V8.18182C92.315 7.31534 92.0901 6.64536 91.6403 6.17188C91.1952 5.69366 90.5773 5.45455 89.7866 5.45455C89.2373 5.45455 88.7449 5.57055 88.3093 5.80256C87.8784 6.03456 87.5375 6.37311 87.2866 6.81818C87.0404 7.26326 86.9173 7.80303 86.9173 8.4375ZM101.802 4.09091V5.51136H96.1484V4.09091H101.802ZM97.7962 1.47727H99.4723V11.875C99.4723 12.3485 99.541 12.7036 99.6783 12.9403C99.8203 13.1723 100 13.3286 100.218 13.4091C100.441 13.4848 100.675 13.5227 100.921 13.5227C101.106 13.5227 101.257 13.5133 101.376 13.4943C101.494 13.4706 101.589 13.4517 101.66 13.4375L102.001 14.9432C101.887 14.9858 101.728 15.0284 101.525 15.071C101.321 15.1184 101.063 15.142 100.751 15.142C100.277 15.142 99.8132 15.0402 99.3587 14.8366C98.9089 14.633 98.5348 14.3229 98.2365 13.9062C97.9429 13.4896 97.7962 12.964 97.7962 12.3295V1.47727Z" fill="white"/>
</svg>
